<svg viewBox="0 0 192 192" xmlns="http://www.w3.org/2000/svg"><path d="m0 0h192v192h-192z" fill="none"/><path d="m164.5 62.33-53.5-50.14a21.8 21.8 0 0 0 -15-5.94 21.82 21.82 0 0 0 -15 5.94l-53.5 50.14a22 22 0 0 0 -6.94 16v85.44a22 22 0 0 0 22 22h107a22 22 0 0 0 21.95-22v-85.42a22 22 0 0 0 -7.01-16.02zm-48.73 60.15h-39.54a6 6 0 0 0 -6 6v38.28h-27.71a3 3 0 0 1 -2.1-.86 2.92 2.92 0 0 1 -.87-2.11v-85.44a3 3 0 0 1 .93-2.17l53.52-50.18a3 3 0 0 1 4 0l53.1 49.77.39.37a3 3 0 0 1 .94 2.17v85.44a2.92 2.92 0 0 1 -.87 2.1 2.88 2.88 0 0 1 -2.1.87h-27.69v-38.24a6 6 0 0 0 -6-6z"/></svg>