<?xml version="1.0" encoding="utf-8"?>
<!-- Generator: Adobe Illustrator 25.4.1, SVG Export Plug-In . SVG Version: 6.00 Build 0)  -->
<svg version="1.1" id="レイヤー_1" xmlns="http://www.w3.org/2000/svg" xmlns:xlink="http://www.w3.org/1999/xlink" x="0px"
	 y="0px" viewBox="0 0 192 192" style="enable-background:new 0 0 192 192;" xml:space="preserve">
<style type="text/css">
	.st0{fill:none;}
</style>
<g id="レイヤー_1_00000137847388070941878660000014347250597307656346_">
</g>
<g id="_x31_">
	<rect class="st0" width="192" height="192"/>
	<g>
		<path d="M73.7,103.1H26.2c-8.4,0-15.2,6.9-15.2,15.2v47.4c0,8.4,6.9,15.2,15.2,15.2h47.4c8.4,0,15.2-6.9,15.2-15.2v-47.4
			C88.9,110,82,103.1,73.7,103.1L73.7,103.1z"/>
		<path d="M73.7,11H26.2C17.9,11,11,17.9,11,26.2v47.4c0,8.4,6.9,15.2,15.2,15.2h47.4c8.4,0,15.2-6.9,15.2-15.2V26.2
			C88.9,17.9,82,11,73.7,11L73.7,11z"/>
		<path d="M165.6,11h-47.4c-8.4,0-15.2,6.9-15.2,15.2v47.4c0,8.4,6.9,15.2,15.2,15.2h47.4c8.4,0,15.2-6.9,15.2-15.2V26.2
			C180.8,17.9,174,11,165.6,11L165.6,11z"/>
		<polygon points="180.6,168 168,168 168,180.6 168,181 181,181 181,168 		"/>
		<rect x="142.1" y="168" width="13" height="12.8"/>
		<path d="M129.1,180.8V142h13v13h38.8v-52.1l-12.8,0.2V116h-26v-13h-25.9c-6.8,0.9-12.1,6.3-13.1,13.1V181L129.1,180.8z"/>
	</g>
</g>
</svg>
