<svg enable-background="new 0 0 192 192" viewBox="0 0 192 192" xmlns="http://www.w3.org/2000/svg"><path d="m0 0h192v192h-192z" fill="none"/><path d="m73.7 103.1h-47.5c-8.4 0-15.2 6.9-15.2 15.2v47.4c0 8.4 6.9 15.2 15.2 15.2h47.4c8.4 0 15.2-6.9 15.2-15.2v-47.4c.1-8.3-6.8-15.2-15.1-15.2z"/><path d="m73.7 11h-47.5c-8.3 0-15.2 6.9-15.2 15.2v47.4c0 8.4 6.9 15.2 15.2 15.2h47.4c8.4 0 15.2-6.9 15.2-15.2v-47.4c.1-8.3-6.8-15.2-15.1-15.2z"/><path d="m165.6 11h-47.4c-8.4 0-15.2 6.9-15.2 15.2v47.4c0 8.4 6.9 15.2 15.2 15.2h47.4c8.4 0 15.2-6.9 15.2-15.2v-47.4c0-8.3-6.8-15.2-15.2-15.2z"/><path d="m180.6 168h-12.6v12.6.4h13v-13z"/><path d="m142.1 168h13v12.8h-13z"/><path d="m129.1 180.8v-38.8h13v13h38.8v-52.1l-12.8.2v12.9h-26v-13h-25.9c-6.8.9-12.1 6.3-13.1 13.1v64.9z"/></svg>