<?xml version="1.0" encoding="utf-8"?>
<!-- Generator: Adobe Illustrator 25.4.1, SVG Export Plug-In . SVG Version: 6.00 Build 0)  -->
<svg version="1.1" id="レイヤー_1" xmlns="http://www.w3.org/2000/svg" xmlns:xlink="http://www.w3.org/1999/xlink" x="0px"
	 y="0px" viewBox="0 0 192 192" style="enable-background:new 0 0 192 192;" xml:space="preserve">
<style type="text/css">
	.st0{fill:none;}
</style>
<g id="レイヤー_1_00000180361404907199271020000012167951020669601669_">
</g>
<g id="_x31_">
	<rect class="st0" width="192" height="192"/>
	<path d="M177.9,155.5l-60.5-59.6L177,35.4c5.9-6,5.8-15.6-0.1-21.5c-6-5.9-15.6-5.8-21.5,0.1L95.9,74.5L35.4,14.9
		C29.4,9,19.8,9,13.9,15s-5.8,15.6,0.2,21.5l60.5,59.6L15,156.6c-5.9,6-5.8,15.6,0.1,21.5c3,2.9,6.8,4.4,10.7,4.4s7.8-1.5,10.8-4.5
		l59.6-60.5l60.5,59.6c3,2.9,6.8,4.4,10.7,4.4s7.8-1.5,10.8-4.5C184,171,183.9,161.4,177.9,155.5z"/>
</g>
</svg>
