<svg viewBox="0 0 192 192" xmlns="http://www.w3.org/2000/svg"><path d="m0 0h192v192h-192z" fill="none"/><g fill="#2c2c2c"><path d="m167.29 17h-21.79v-6.63a6.5 6.5 0 0 0 -13 0v6.63h-73v-6.63a6.5 6.5 0 1 0 -13 0v6.63h-21.79a14.27 14.27 0 0 0 -14.26 14.28v142.59a14.27 14.27 0 0 0 14.26 14.26h142.58a14.27 14.27 0 0 0 14.26-14.26v-142.59a14.27 14.27 0 0 0 -14.26-14.28zm-121.2 19h.41v1.35a6.5 6.5 0 1 0 13 0v-1.35h73v1.35a6.5 6.5 0 1 0 13 0v-1.35h17.05v17.8h-133.1v-17.8zm-16.64 133.13v-96.33h133.1v96.33z"/><path d="m118.45 161.51a5.88 5.88 0 0 1 -2.79-.69l-19.66-10.33-19.66 10.33a6 6 0 0 1 -8.7-6.32l3.75-21.89-15.9-15.5a6 6 0 0 1 3.32-10.24l22-3.19 9.83-19.92a6 6 0 0 1 10.76 0l9.83 19.92 22 3.19a6 6 0 0 1 3.32 10.24l-15.9 15.5 3.75 21.89a6 6 0 0 1 -5.91 7zm-22.45-23.8a6 6 0 0 1 2.79.69l11.69 6.14-2.23-13a6 6 0 0 1 1.72-5.31l9.46-9.22-13.07-1.9a6 6 0 0 1 -4.52-3.28l-5.84-11.83-5.84 11.84a6 6 0 0 1 -4.52 3.28l-13.07 1.88 9.43 9.22a6 6 0 0 1 1.72 5.31l-2.23 13 11.69-6.14a6 6 0 0 1 2.82-.68z"/></g></svg>