<svg xmlns="http://www.w3.org/2000/svg" width="16" height="16" viewBox="0 0 16 16">
  <g id="Group_787" data-name="Group 787" transform="translate(160 -555)">
    <rect id="Rectangle_1438" data-name="Rectangle 1438" width="16" height="16" transform="translate(-160 555)" fill="none"/>
    <path id="Path_385" data-name="Path 385" d="M-144.486,559.508a1.262,1.262,0,0,1-.322.844l-6.249,6.984a1.267,1.267,0,0,1-.943.422,1.267,1.267,0,0,1-.943-.422l-6.2-6.934a1.312,1.312,0,0,1-.092-1.683,1.266,1.266,0,0,1,1.933-.055l5.306,5.93,5.249-5.866a1.323,1.323,0,0,1,1.8-.2A1.261,1.261,0,0,1-144.486,559.508Z" fill="#2c2c2c"/>
  </g>
</svg>
