<svg viewBox="0 0 192 192" xmlns="http://www.w3.org/2000/svg"><path d="m0 0h192v192h-192z" fill="none"/><path d="m185.66 47.68a22 22 0 0 0 -2-9.1c-3.16-6.64-8.84-9.94-16.85-10-17.06 0-34.4 0-51.17 0h-19.64l-1.24.08h-16.29q-27.87 0-55.75 0c-3.17 0-6.26 1.18-9.46 3.6-4.7 3.54-7 8.7-7 15.75v93.52c0 1.32.1 2.64.2 3.91 0 .6.09 1.2.13 1.8.56 9.63 9.71 16.07 17.91 16.07 34-.09 68.57-.08 102-.07h40.9a17.21 17.21 0 0 0 3.68-.28c9.14-2 14.6-9 14.6-18.79v-7.87c.07-29 .09-59.06-.02-88.62zm-160.66 32.51 51 39.89a31.44 31.44 0 0 0 38.78 0l52.22-40.79v65.71h-142zm81.84 29.64a18.47 18.47 0 0 1 -22.78 0l-59.06-46.14v-16.63h142v15.74z"/></svg>