<svg viewBox="0 0 192 192" xmlns="http://www.w3.org/2000/svg"><path d="m0 0h192v192h-192z" fill="none"/><path d="m172.34 55.31-49.91-49.9a7.12 7.12 0 0 0 -5-2.09h-85.59a14.27 14.27 0 0 0 -14.26 14.26v156.84a14.27 14.27 0 0 0 14.26 14.26h128.32a14.27 14.27 0 0 0 14.26-14.26v-114.07a7.15 7.15 0 0 0 -2.08-5.04zm-45.45-18.58 14.11 14.12h-14.11zm-90.31 133v-147.41h71.31v38a9.5 9.5 0 0 0 9.5 9.5h38v99.83z"/><path d="m63.42 72.65a11.32 11.32 0 0 0 -3.12.5 15.05 15.05 0 0 0 -10.72 14.51v1.47a5 5 0 0 0 4.94 5h36.26a5 5 0 0 0 4.94-5v-1.43a15.09 15.09 0 0 0 -10.72-14.54 11 11 0 0 0 -3.13-.51c-3 0-4.38 1.65-9.23 1.65s-6.26-1.65-9.23-1.65z"/><path d="m72.65 40.89a14.83 14.83 0 0 0 -1.52 29.59c.51 0 1 .07 1.52.07a14.83 14.83 0 0 0 1.51-29.55c-.51-.05-1-.07-1.51-.07z"/><path d="m135.92 122.59h-79.84a6.5 6.5 0 0 1 0-13h79.84a6.5 6.5 0 0 1 0 13z"/><path d="m135.92 151.11h-79.84a6.5 6.5 0 1 1 0-13h79.84a6.5 6.5 0 0 1 0 13z"/></svg>