<svg viewBox="0 0 192 192" xmlns="http://www.w3.org/2000/svg"><path d="m0 0h192v192h-192z" fill="none"/><path d="m66.28 166.15h2.6c5.74-.28 9.1-3.72 9.12-9.44 0-16.4 0-44.31 0-60.71a17.3 17.3 0 0 0 -14.57-17.23 6.36 6.36 0 0 0 -3 .48c-3 1.17-6 2.81-9.08 3.64-9.18 2.44-17.93 1-26.19-3.62a4.47 4.47 0 0 0 -2.57-.61 17 17 0 0 0 -14.87 16c-.31 8-.14 16-.16 24 0 8.77-.07 29 0 37.82 0 6.07 3.51 9.52 9.55 9.71.63 0 1.25.07 2.12.11m95-117.06a23.51 23.51 0 1 0 23.68-23.48 23.55 23.55 0 0 0 -23.7 23.44zm-71.39-23.47c-12.74-.43-23.53 10.09-23.57 23.32a23.49 23.49 0 1 0 47-.05 23.16 23.16 0 0 0 -23.43-23.27z"/><path d="m155.32 166.26c6.77 0 13.18.05 19.59 0 7-.07 10.87-5.13 9.21-11.89q-8-32.77-16.12-65.54a18.84 18.84 0 0 0 -1.74-4.57c-1.47-2.69-4-4.13-6.78-5.23-2.55-1-4.38.27-6.36 1.39a14.59 14.59 0 0 1 -1.74.82 34.34 34.34 0 0 1 -30.68-1.59 5.91 5.91 0 0 0 -2.94-1 11.85 11.85 0 0 0 -10.05 8.67q-8.35 33.81-16.56 67.64a10.74 10.74 0 0 0 .13 5c1 3.89 4.56 6.23 9.16 6.26 6.42.06 12.83 0 19.58 0z"/><path d="m66.28 166.15h2.6c5.74-.28 9.1-3.72 9.12-9.44 0-16.4 0-44.31 0-60.71a17.3 17.3 0 0 0 -14.57-17.23 6.36 6.36 0 0 0 -3 .48c-3 1.17-6 2.81-9.08 3.64-9.18 2.44-17.93 1-26.19-3.62a4.47 4.47 0 0 0 -2.57-.61 17 17 0 0 0 -14.87 16c-.31 8-.14 16-.16 24 0 8.77-.07 29 0 37.82 0 6.07 3.51 9.52 9.55 9.71.63 0 1.25.07 2.12.11z"/><path d="m114.21 49.2a23.51 23.51 0 0 1 47-.06 23.51 23.51 0 0 1 -47 .06z"/><path d="m42.84 25.77a23.16 23.16 0 0 1 23.41 23.23 23.49 23.49 0 1 1 -47 .05c.06-13.19 10.85-23.71 23.59-23.28z"/></svg>