<svg enable-background="new 0 0 192 192" viewBox="0 0 192 192" xmlns="http://www.w3.org/2000/svg"><path d="m0 0h192v192h-192z" fill="none"/><path d="m188.2 72-7.5-7.5c-4.6-4.6-12-4.6-16.6 0l-7.1 7.1 24.1 24.1 7.1-7.1c4.6-4.6 4.6-12 0-16.6z"/><path d="m126.3 165h-38.3v-38.3l69.9-69.9v-4.1-35.1c0-7.8-6.4-14.3-14.3-14.3h-129c-7.8 0-14.2 6.4-14.2 14.3v156.8c0 7.8 6.4 14.3 14.3 14.3h129c7.8 0 14.3-6.4 14.3-14.3v-14.2c0-3.9 0-9.1 0-14.3v-8.7-3.9zm-75.8-104.6h57c3.6 0 6.5 2.9 6.5 6.5s-2.9 6.5-6.5 6.5h-57c-3.6 0-6.5-2.9-6.5-6.5s2.9-6.5 6.5-6.5zm0 29h57c3.6 0 6.5 2.9 6.5 6.5s-2.9 6.5-6.5 6.5h-57c-3.6 0-6.5-2.9-6.5-6.5s2.9-6.5 6.5-6.5zm23.7 41h-23.7c-3.6 0-6.5-2.9-6.5-6.5s2.9-6.5 6.5-6.5h23.7c3.6 0 6.5 2.9 6.5 6.5s-2.9 6.5-6.5 6.5z"/><path d="m97.9 130.6v24.1h24.1l52.6-52.5-24.1-24.1z"/></svg>