<svg width="21" height="20" viewBox="0 0 21 20" fill="none" xmlns="http://www.w3.org/2000/svg">
<path d="M11.7 10.63H5.75998C5.57963 10.63 5.40667 10.5584 5.27914 10.4308C5.15162 10.3033 5.07996 10.1304 5.07996 9.95001C5.07996 9.76966 5.15162 9.5967 5.27914 9.46918C5.40667 9.34165 5.57963 9.27002 5.75998 9.27002H11.7C11.8803 9.27002 12.0533 9.34165 12.1808 9.46918C12.3083 9.5967 12.38 9.76966 12.38 9.95001C12.38 10.1304 12.3083 10.3033 12.1808 10.4308C12.0533 10.5584 11.8803 10.63 11.7 10.63V10.63Z" fill="#2C2C2C"/>
<path d="M11.7 7.5999H5.76001C5.66447 7.61155 5.56755 7.60274 5.47565 7.57414C5.38375 7.54555 5.29896 7.49781 5.2269 7.43401C5.15484 7.3702 5.09716 7.29179 5.05765 7.20403C5.01814 7.11626 4.99768 7.02116 4.99768 6.92491C4.99768 6.82867 5.01814 6.7335 5.05765 6.64574C5.09716 6.55798 5.15484 6.47956 5.2269 6.41576C5.29896 6.35195 5.38375 6.30422 5.47565 6.27562C5.56755 6.24702 5.66447 6.23821 5.76001 6.24986H11.7C11.8649 6.26997 12.0167 6.34976 12.1268 6.47411C12.2369 6.59846 12.2977 6.75882 12.2977 6.92491C12.2977 7.09101 12.2369 7.25131 12.1268 7.37566C12.0167 7.50001 11.8649 7.5798 11.7 7.5999V7.5999Z" fill="#2C2C2C"/>
<path d="M8.22998 13.55H5.75998C5.57963 13.55 5.40667 13.4783 5.27914 13.3508C5.15162 13.2232 5.07996 13.0503 5.07996 12.8699C5.07996 12.6896 5.15162 12.5166 5.27914 12.3891C5.40667 12.2616 5.57963 12.1899 5.75998 12.1899H8.22998C8.41033 12.1899 8.58329 12.2616 8.71082 12.3891C8.83834 12.5166 8.90997 12.6896 8.90997 12.8699C8.90997 13.0503 8.83834 13.2232 8.71082 13.3508C8.58329 13.4783 8.41033 13.55 8.22998 13.55Z" fill="#2C2C2C"/>
<path d="M20.1 7.4599L19.32 6.66992C19.0885 6.44452 18.7781 6.31836 18.455 6.31836C18.1319 6.31836 17.8215 6.44452 17.59 6.66992L16.86 7.40991L19.37 9.91992L20.1 9.18988C20.214 9.07651 20.3045 8.94172 20.3662 8.79327C20.4279 8.64483 20.4597 8.48566 20.4597 8.32489C20.4597 8.16412 20.4279 8.00495 20.3662 7.85651C20.3045 7.70806 20.214 7.57327 20.1 7.4599Z" fill="#2C2C2C"/>
<path d="M15 15.83V17.64H2.52002V2.28003H15V7.87L17 5.87V1.77002C17 1.3775 16.8441 1.00106 16.5665 0.723511C16.289 0.445957 15.9125 0.290039 15.52 0.290039H2.00002C1.60749 0.290039 1.23105 0.445957 0.953491 0.723511C0.675937 1.00106 0.52002 1.3775 0.52002 1.77002V18.11C0.52002 18.5026 0.675937 18.879 0.953491 19.1566C1.23105 19.4341 1.60749 19.59 2.00002 19.59H15.44C15.8325 19.59 16.209 19.4341 16.4865 19.1566C16.7641 18.879 16.92 18.5026 16.92 18.11V13.86L15 15.83Z" fill="#2C2C2C"/>
<path d="M10.7 13.5699V16.0799H13.2099L18.6799 10.6099L16.17 8.09985L10.7 13.5699Z" fill="#2C2C2C"/>
</svg>
