<?xml version="1.0" encoding="utf-8"?>
<!-- Generator: Adobe Illustrator 25.4.1, SVG Export Plug-In . SVG Version: 6.00 Build 0)  -->
<svg version="1.1" id="レイヤー_1" xmlns="http://www.w3.org/2000/svg" xmlns:xlink="http://www.w3.org/1999/xlink" x="0px"
	 y="0px" viewBox="0 0 192 192" style="enable-background:new 0 0 192 192;" xml:space="preserve">
<style type="text/css">
	.st0{fill:none;}
</style>
<g id="レイヤー_1_00000020395524293131499000000000345078317011599510_">
</g>
<g id="_x31_">
	<rect class="st0" width="192" height="192"/>
	<g>
		<path d="M188.2,72l-7.5-7.5c-4.6-4.6-12-4.6-16.6,0l-7.1,7.1l24.1,24.1l7.1-7.1C192.8,84,192.8,76.6,188.2,72z"/>
		<path d="M126.3,165H88v-38.3l69.9-69.9v-4.1V17.6c0-7.8-6.4-14.3-14.3-14.3h-129C6.8,3.3,0.4,9.7,0.4,17.6v156.8
			c0,7.8,6.4,14.3,14.3,14.3h129c7.8,0,14.3-6.4,14.3-14.3v-14.2c0-3.9,0-9.1,0-14.3v-8.7v-3.9L126.3,165z M50.5,60.4h57
			c3.6,0,6.5,2.9,6.5,6.5s-2.9,6.5-6.5,6.5h-57c-3.6,0-6.5-2.9-6.5-6.5S46.9,60.4,50.5,60.4z M50.5,89.4h57c3.6,0,6.5,2.9,6.5,6.5
			s-2.9,6.5-6.5,6.5h-57c-3.6,0-6.5-2.9-6.5-6.5S46.9,89.4,50.5,89.4z M74.2,130.4H50.5c-3.6,0-6.5-2.9-6.5-6.5s2.9-6.5,6.5-6.5
			h23.7c3.6,0,6.5,2.9,6.5,6.5S77.8,130.4,74.2,130.4z"/>
		<polygon points="97.9,130.6 97.9,154.7 122,154.7 174.6,102.2 150.5,78.1 		"/>
	</g>
</g>
</svg>
