<svg enable-background="new 0 0 192 192" viewBox="0 0 192 192" xmlns="http://www.w3.org/2000/svg"><path d="m0 0h192v192h-192z" fill="none"/><path d="m172.3 55.3-49.9-49.9c-1.3-1.3-3.2-2.1-5-2.1h-85.6c-7.9 0-14.3 6.4-14.3 14.3v156.8c0 7.9 6.4 14.3 14.3 14.3h128.3c7.9 0 14.3-6.4 14.3-14.3v-114c0-1.9-.7-3.8-2.1-5.1zm-45.4-18.6 14.1 14.2h-14.1zm-90.3 133v-147.4h71.3v38c0 5.2 4.3 9.5 9.5 9.5h38v99.8z"/><path d="m124.5 102.6h-57c-3.6 0-6.5-2.9-6.5-6.5s2.9-6.5 6.5-6.5h57c3.6 0 6.5 2.9 6.5 6.5s-2.9 6.5-6.5 6.5z"/><path d="m124.5 131.1h-57c-3.6 0-6.5-2.9-6.5-6.5s2.9-6.5 6.5-6.5h57c3.6 0 6.5 2.9 6.5 6.5s-2.9 6.5-6.5 6.5z"/><path d="m91.2 73.6h-23.7c-3.6 0-6.5-2.9-6.5-6.5s2.9-6.5 6.5-6.5h23.7c3.6 0 6.5 2.9 6.5 6.5s-2.9 6.5-6.5 6.5z"/></svg>