<svg enable-background="new 0 0 192 192" viewBox="0 0 192 192" xmlns="http://www.w3.org/2000/svg"><path d="m0 0h192v192h-192z" fill="none"/><path d="m172.3 55.3-49.9-49.9c-1.3-1.3-3.2-2.1-5-2.1h-85.6c-7.9 0-14.3 6.4-14.3 14.3v156.8c0 7.9 6.4 14.3 14.3 14.3h128.3c7.9 0 14.3-6.4 14.3-14.3v-114c0-1.9-.7-3.8-2.1-5.1zm-104.8 5.3h23.7c3.6 0 6.5 2.9 6.5 6.5s-2.9 6.5-6.5 6.5h-23.7c-3.6 0-6.5-2.9-6.5-6.5s2.9-6.5 6.5-6.5zm57 70.5h-57c-3.6 0-6.5-2.9-6.5-6.5s2.9-6.5 6.5-6.5h57c3.6 0 6.5 2.9 6.5 6.5s-2.9 6.5-6.5 6.5zm0-28.5h-57c-3.6 0-6.5-2.9-6.5-6.5s2.9-6.5 6.5-6.5h57c3.6 0 6.5 2.9 6.5 6.5s-2.9 6.5-6.5 6.5zm-7.1-42.2v-36.5l36.5 36.5z"/></svg>