<?xml version="1.0" encoding="utf-8"?>
<!-- Generator: Adobe Illustrator 25.4.1, SVG Export Plug-In . SVG Version: 6.00 Build 0)  -->
<svg version="1.1" id="レイヤー_1" xmlns="http://www.w3.org/2000/svg" xmlns:xlink="http://www.w3.org/1999/xlink" x="0px"
	 y="0px" viewBox="0 0 192 192" style="enable-background:new 0 0 192 192;" xml:space="preserve">
<style type="text/css">
	.st0{fill:none;}
</style>
<g id="レイヤー_1_00000174600472880943683850000003286293136327039134_">
</g>
<g id="_x31_">
	<rect class="st0" width="192" height="192"/>
	<g>
		<g>
			<path d="M172.3,55.3L122.4,5.4c-1.3-1.3-3.2-2.1-5-2.1H31.8c-7.9,0-14.3,6.4-14.3,14.3v156.8c0,7.9,6.4,14.3,14.3,14.3h128.3
				c7.9,0,14.3-6.4,14.3-14.3v-114C174.4,58.5,173.7,56.6,172.3,55.3z M126.9,36.7L141,50.9h-14.1V36.7z M36.6,169.7V22.3h71.3v38
				c0,5.2,4.3,9.5,9.5,9.5h38v99.8L36.6,169.7L36.6,169.7z"/>
		</g>
		<g>
			<path d="M124.5,102.6h-57c-3.6,0-6.5-2.9-6.5-6.5s2.9-6.5,6.5-6.5h57c3.6,0,6.5,2.9,6.5,6.5S128.1,102.6,124.5,102.6z"/>
			<path d="M124.5,131.1h-57c-3.6,0-6.5-2.9-6.5-6.5s2.9-6.5,6.5-6.5h57c3.6,0,6.5,2.9,6.5,6.5C131,128.2,128.1,131.1,124.5,131.1z"
				/>
			<path d="M91.2,73.6H67.5c-3.6,0-6.5-2.9-6.5-6.5s2.9-6.5,6.5-6.5h23.7c3.6,0,6.5,2.9,6.5,6.5S94.8,73.6,91.2,73.6z"/>
		</g>
	</g>
</g>
</svg>
