<?xml version="1.0" encoding="utf-8"?>
<!-- Generator: Adobe Illustrator 25.4.1, SVG Export Plug-In . SVG Version: 6.00 Build 0)  -->
<svg version="1.1" id="レイヤー_1" xmlns="http://www.w3.org/2000/svg" xmlns:xlink="http://www.w3.org/1999/xlink" x="0px"
	 y="0px" viewBox="0 0 192 192" style="enable-background:new 0 0 192 192;" xml:space="preserve">
<style type="text/css">
	.st0{fill:none;}
</style>
<g id="レイヤー_1_00000103983974204621045800000001472625861992644493_">
</g>
<g id="_x31_">
	<rect class="st0" width="192" height="192"/>
	<g>
		<path d="M63.8,114c-3,0-6.5,0.5-10.9,1.7c-22.3,6.4-37.4,27.3-37.4,50.6v5.1c0,9.5,7.7,17.2,17.2,17.2h126.4
			c9.5,0,17.2-7.7,17.2-17.2v-5c0-23.2-15-44.2-37.3-50.7c-4.4-1.3-7.9-1.8-10.9-1.8c-10.3,0-15.3,5.7-32.2,5.7
			C79.1,119.8,74.2,114,63.8,114L63.8,114z"/>
		<path d="M96,3.3c-30.3,0-54.5,26.1-51.4,57c2.4,24.2,22,43.8,46.2,46.2c1.8,0.2,3.5,0.3,5.3,0.3c30.3,0,54.5-26.1,51.4-57
			C145,25.5,125.5,6,101.3,3.6C99.5,3.4,97.7,3.3,96,3.3L96,3.3z"/>
	</g>
</g>
</svg>
