<?xml version="1.0" encoding="utf-8"?>
<!-- Generator: Adobe Illustrator 25.4.1, SVG Export Plug-In . SVG Version: 6.00 Build 0)  -->
<svg version="1.1" id="レイヤー_1" xmlns="http://www.w3.org/2000/svg" xmlns:xlink="http://www.w3.org/1999/xlink" x="0px"
	 y="0px" viewBox="0 0 192 192" style="enable-background:new 0 0 192 192;" xml:space="preserve">
<style type="text/css">
	.st0{fill:none;}
</style>
<g id="レイヤー_1_00000026137238761038764140000015879983222165401272_">
</g>
<g id="_x31_">
	<rect class="st0" width="192" height="192"/>
	<g>
		<path d="M128.2,133c1.4,0,3.3,0.3,5.6,1c13.9,4.1,23.7,17.4,23.7,32.4v3.2H34.6v-3.3c0-15,9.7-28.3,23.7-32.3c2.3-0.7,4.2-1,5.6-1
			c1.5,0,2.8,0.4,6.2,1.5c5.7,1.8,13.5,4.3,25.9,4.3s20.3-2.5,26-4.3C125.4,133.4,126.7,133,128.2,133 M63.8,114
			c-3,0-6.5,0.5-10.9,1.7c-22.3,6.4-37.4,27.3-37.4,50.6v5.1c0,9.5,7.7,17.2,17.2,17.2h126.4c9.5,0,17.2-7.7,17.2-17.2v-5
			c0-23.2-15-44.2-37.3-50.7c-4.4-1.3-7.9-1.8-10.9-1.8c-10.3,0-15.3,5.7-32.2,5.7C79.1,119.8,74.2,114,63.8,114L63.8,114z"/>
		<path d="M96,22.3c1.1,0,2.3,0.1,3.4,0.2c15.1,1.5,27.6,14,29.1,29.1c0.9,9.4-2,18.4-8.3,25.3c-6.2,6.8-15,10.8-24.2,10.8
			c-1.1,0-2.3-0.1-3.4-0.2C77.5,86,65,73.5,63.5,58.4c-0.9-9.4,2-18.4,8.3-25.3C78,26.2,86.8,22.3,96,22.3 M96,3.3
			c-30.3,0-54.5,26.1-51.4,57c2.4,24.2,22,43.8,46.2,46.2c1.8,0.2,3.5,0.3,5.3,0.3c30.3,0,54.5-26.1,51.4-57
			C145,25.5,125.5,6,101.3,3.6C99.5,3.4,97.7,3.3,96,3.3L96,3.3z"/>
	</g>
</g>
</svg>
