<svg enable-background="new 0 0 192 192" viewBox="0 0 192 192" xmlns="http://www.w3.org/2000/svg"><path d="m0 0h192v192h-192z" fill="none"/><path d="m63.8 114c-3 0-6.5.5-10.9 1.7-22.3 6.4-37.4 27.3-37.4 50.6v5.1c0 9.5 7.7 17.2 17.2 17.2h126.4c9.5 0 17.2-7.7 17.2-17.2v-5c0-23.2-15-44.2-37.3-50.7-4.4-1.3-7.9-1.8-10.9-1.8-10.3 0-15.3 5.7-32.2 5.7-16.8.2-21.7-5.6-32.1-5.6z"/><path d="m96 3.3c-30.3 0-54.5 26.1-51.4 57 2.4 24.2 22 43.8 46.2 46.2 1.8.2 3.5.3 5.3.3 30.3 0 54.5-26.1 51.4-57-2.5-24.3-22-43.8-46.2-46.2-1.8-.2-3.6-.3-5.3-.3z"/></svg>