<svg viewBox="0 0 192 192" xmlns="http://www.w3.org/2000/svg"><path d="m0 0h192v192h-192z" fill="none"/><path d="m185.5 58.23h-77a6.5 6.5 0 1 0 0 13h77a6.5 6.5 0 0 0 0-13z"/><path d="m185.5 86.74h-77a6.5 6.5 0 0 0 0 13h77a6.5 6.5 0 0 0 0-13z"/><path d="m8.89 143.83h65.22a8.89 8.89 0 0 0 8.89-8.89v-2.57a27.13 27.13 0 0 0 -19.27-26.15 19.72 19.72 0 0 0 -5.63-.92c-5.32 0-7.87 3-16.6 3s-11.26-3-16.6-3a20 20 0 0 0 -5.6.9 27.06 27.06 0 0 0 -19.3 26.1v2.64a8.89 8.89 0 0 0 8.89 8.89z"/><path d="m44.22 48.3c-.91-.09-1.82-.13-2.72-.13a26.68 26.68 0 0 0 -2.72 53.22c.91.09 1.82.13 2.72.13a26.68 26.68 0 0 0 2.72-53.22z"/></svg>