<svg viewBox="0 0 192 192" xmlns="http://www.w3.org/2000/svg"><path d="m0 0h192v192h-192z" fill="none"/><path d="m131.18 181.1a46.59 46.59 0 0 1 -15.39-2.68c-24.22-8.42-45.63-23.54-63.63-44.92s-29.28-45-33.48-70.32c-3.35-20.18 5.89-38.18 25.32-49.32l.26-.15c6.36-3.81 21.38-5.21 28.65 5.6 5 7.52 13.54 29 14.45 35.27 1.2 8.28-4.63 16.75-13.25 20.21 2.81 5.21 8.12 13.64 17.89 25.21s17.17 18.2 21.79 21.82c4.87-7.9 14.21-12.21 22.18-9.62 6.08 2 25.75 14 32.29 20.21 9.43 9 5.52 23.55.68 29.19l-.19.22c-10.53 12.64-23.69 19.28-37.57 19.28zm-77.94-151.77-.24.14c-9 5.18-19.23 14.73-16.57 30.76 3.67 22.06 13.57 42.77 29.49 61.68s34.66 32.16 55.79 39.51c15.35 5.35 26.49-3.09 33.13-11.11l.17-.21c.77-1.32 1.34-4.16.78-4.69-4.7-4.48-20.42-14-24.86-15.9a5.06 5.06 0 0 0 -2.24 2.51c-3.94 10.48-12.07 11.32-15.81 10.29a8.5 8.5 0 0 1 -1.46-.53c-1.32-.62-13.43-6.71-33.23-30.21s-23.75-36.47-24.14-37.87a8.83 8.83 0 0 1 -.28-1.52c-.37-3.88 1.82-11.75 12.82-13.84a5.1 5.1 0 0 0 2.85-1.79c-1.13-4.68-7.82-21.8-11.44-27.21-.44-.63-3.33-.55-4.76-.01zm102 120.5s-.08.09-.12.15l.11-.14zm-101.7-120.68-.15.09z"/></svg>