<svg viewBox="0 0 192 192" xmlns="http://www.w3.org/2000/svg"><path d="m0 0h192v192h-192z" fill="none"/><path d="m0 0h192v192h-192z" fill="none"/><path d="m166.06 44h-101.23a9.42 9.42 0 0 0 0 18.84h101.23a9.42 9.42 0 0 0 0-18.84z"/><path d="m166.06 86.58h-101.23a9.42 9.42 0 0 0 0 18.84h101.23a9.42 9.42 0 0 0 0-18.84z"/><path d="m166.06 129.12h-101.23a9.42 9.42 0 0 0 0 18.84h101.23a9.42 9.42 0 0 0 0-18.84z"/><circle cx="26" cy="53.46" r="9.44"/><circle cx="26" cy="96" r="9.44"/><circle cx="26" cy="138.54" r="9.44"/></svg>