<?xml version="1.0" encoding="utf-8"?>
<!-- Generator: Adobe Illustrator 25.4.1, SVG Export Plug-In . SVG Version: 6.00 Build 0)  -->
<svg version="1.1" id="レイヤー_1" xmlns="http://www.w3.org/2000/svg" xmlns:xlink="http://www.w3.org/1999/xlink" x="0px"
	 y="0px" viewBox="0 0 192 192" style="enable-background:new 0 0 192 192;" xml:space="preserve">
<style type="text/css">
	.st0{fill:none;}
</style>
<g id="レイヤー_1_00000047046858648969268560000010019363707995050371_">
</g>
<g id="_x31_">
	<g>
		<path d="M184.7,149.4l-40.5-40.5c4.3-9.2,6.6-19.4,6.6-30.2c0-39.8-32.3-72.1-72.1-72.1S6.6,39,6.6,78.7s32.3,72.1,72.1,72.1
			c10.8,0,21-2.4,30.2-6.6l40.5,40.5c4.7,4.7,11,7.3,17.6,7.3c6.7,0,12.9-2.6,17.6-7.3c4.7-4.7,7.3-11,7.3-17.6
			C192,160.4,189.4,154.1,184.7,149.4z M25.6,78.7c0-29.3,23.8-53.1,53.1-53.1s53.1,23.8,53.1,53.1s-23.8,53.1-53.1,53.1
			S25.6,108,25.6,78.7z M175,175c-2.2,2.2-5.1,3.3-8,3.3s-5.8-1.1-8-3.3l-38-38c6.1-4.4,11.5-9.8,15.9-15.9l38,38
			C179.4,163.5,179.4,170.6,175,175z"/>
	</g>
	<rect class="st0" width="192" height="192"/>
</g>
</svg>
