<svg enable-background="new 0 0 192 192" viewBox="0 0 192 192" xmlns="http://www.w3.org/2000/svg"><path d="m184.7 149.4-40.5-40.5c4.3-9.2 6.6-19.4 6.6-30.2 0-39.8-32.3-72.1-72.1-72.1s-72.1 32.4-72.1 72.1 32.3 72.1 72.1 72.1c10.8 0 21-2.4 30.2-6.6l40.5 40.5c4.7 4.7 11 7.3 17.6 7.3 6.7 0 12.9-2.6 17.6-7.3s7.3-11 7.3-17.6c.1-6.7-2.5-13-7.2-17.7zm-159.1-70.7c0-29.3 23.8-53.1 53.1-53.1s53.1 23.8 53.1 53.1-23.8 53.1-53.1 53.1-53.1-23.8-53.1-53.1zm149.4 96.3c-2.2 2.2-5.1 3.3-8 3.3s-5.8-1.1-8-3.3l-38-38c6.1-4.4 11.5-9.8 15.9-15.9l38 38c4.5 4.4 4.5 11.5.1 15.9z"/><path d="m0 0h192v192h-192z" fill="none"/></svg>