<svg xmlns="http://www.w3.org/2000/svg" viewBox="0 0 192 192" style="enable-background:new 0 0 192 192" xml:space="preserve"><path d="m184.7 149.4-35.5-35.5c5.3-10.6 8.3-22.5 8.3-35.1C157.5 35.3 122.2 0 78.7 0 35.3 0 0 35.3 0 78.7s35.3 78.7 78.7 78.7c12.6 0 24.6-3 35.1-8.3l35.5 35.5c4.7 4.7 11 7.3 17.6 7.3 6.7 0 12.9-2.6 17.6-7.3 4.7-4.7 7.3-11 7.3-17.6.2-6.6-2.4-12.9-7.1-17.6zM32.3 78.7c0-25.6 20.8-46.5 46.5-46.5 25.6 0 46.5 20.8 46.5 46.5 0 25.6-20.8 46.5-46.5 46.5s-46.5-20.8-46.5-46.5z"/><path style="fill:none" d="M0 0h192v192H0z"/></svg>