<?xml version="1.0" encoding="utf-8"?>
<!-- Generator: Adobe Illustrator 25.4.1, SVG Export Plug-In . SVG Version: 6.00 Build 0)  -->
<svg version="1.1" id="レイヤー_1" xmlns="http://www.w3.org/2000/svg" xmlns:xlink="http://www.w3.org/1999/xlink" x="0px"
	 y="0px" viewBox="0 0 192 192" style="enable-background:new 0 0 192 192;" xml:space="preserve">
<style type="text/css">
	.st0{fill:none;}
</style>
<g id="レイヤー_1_00000100365351540405069860000009747289464392395671_">
</g>
<g id="_x31_">
	<g>
		<path d="M184.7,149.4l-35.5-35.5c5.3-10.6,8.3-22.5,8.3-35.1C157.5,35.3,122.2,0,78.7,0C35.3,0,0,35.3,0,78.7s35.3,78.7,78.7,78.7
			c12.6,0,24.6-3,35.1-8.3l35.5,35.5c4.7,4.7,11,7.3,17.6,7.3c6.7,0,12.9-2.6,17.6-7.3c4.7-4.7,7.3-11,7.3-17.6
			C192,160.4,189.4,154.1,184.7,149.4z M32.3,78.7c0-25.6,20.8-46.5,46.5-46.5c25.6,0,46.5,20.8,46.5,46.5
			c0,25.6-20.8,46.5-46.5,46.5S32.3,104.4,32.3,78.7z"/>
	</g>
	<rect class="st0" width="192" height="192"/>
</g>
</svg>
