<svg xmlns="http://www.w3.org/2000/svg" width="16" height="16" viewBox="0 0 16 16">
  <g id="Group_786" data-name="Group 786" transform="translate(160 -509)">
    <rect id="Rectangle_1437" data-name="Rectangle 1437" width="16" height="16" transform="translate(-160 509)" fill="none"/>
    <path id="Path_384" data-name="Path 384" d="M-159.514,520.492a1.262,1.262,0,0,1,.322-.844l6.249-6.984a1.267,1.267,0,0,1,.943-.422,1.267,1.267,0,0,1,.943.422l6.2,6.934a1.312,1.312,0,0,1,.092,1.683,1.266,1.266,0,0,1-1.933.055l-5.306-5.93-5.249,5.866a1.323,1.323,0,0,1-1.8.2A1.261,1.261,0,0,1-159.514,520.492Z" fill="#2c2c2c"/>
  </g>
</svg>
