<?xml version="1.0" encoding="utf-8"?>
<!-- Generator: Adobe Illustrator 25.4.1, SVG Export Plug-In . SVG Version: 6.00 Build 0)  -->
<svg version="1.1" id="レイヤー_1" xmlns="http://www.w3.org/2000/svg" xmlns:xlink="http://www.w3.org/1999/xlink" x="0px"
	 y="0px" viewBox="0 0 192 192" style="enable-background:new 0 0 192 192;" xml:space="preserve">
<style type="text/css">
	.st0{fill:none;}
</style>
<g id="レイヤー_1_00000001647481206301842290000011677246281797253288_">
</g>
<g id="_x31_">
	<rect class="st0" width="192" height="192"/>
	<path d="M167.3,17h-21.4h-0.4v-6.7c0-3.6-2.9-6.5-6.5-6.5s-6.5,2.9-6.5,6.5V17h-73v-6.7c0-3.6-2.9-6.5-6.5-6.5s-6.5,2.9-6.5,6.5V17
		h-0.4H24.7c-7.9,0-14.3,6.4-14.3,14.3v142.6c0,7.9,6.4,14.3,14.3,14.3h142.6c7.9,0,14.3-6.4,14.3-14.3V31.3
		C181.5,23.4,175.2,17,167.3,17z M70.1,148.4c0,2.7-2.2,4.9-4.9,4.9H49c-2.7,0-4.9-2.2-4.9-4.9v-16.2c0-2.7,2.2-4.9,4.9-4.9h16.2
		c2.7,0,4.9,2.2,4.9,4.9V148.4z M70.1,109.5c0,2.7-2.2,4.9-4.9,4.9H49c-2.7,0-4.9-2.2-4.9-4.9V93.3c0-2.7,2.2-4.9,4.9-4.9h16.2
		c2.7,0,4.9,2.2,4.9,4.9V109.5z M109,148.4c0,2.7-2.2,4.9-4.9,4.9H87.9c-2.7,0-4.9-2.2-4.9-4.9v-16.2c0-2.7,2.2-4.9,4.9-4.9h16.2
		c2.7,0,4.9,2.2,4.9,4.9C109,132.2,109,148.4,109,148.4z M109,109.5c0,2.7-2.2,4.9-4.9,4.9H87.9c-2.7,0-4.9-2.2-4.9-4.9V93.3
		c0-2.7,2.2-4.9,4.9-4.9h16.2c2.7,0,4.9,2.2,4.9,4.9C109,93.3,109,109.5,109,109.5z M147.8,148.4c0,2.7-2.2,4.9-4.9,4.9h-16.2
		c-2.7,0-4.9-2.2-4.9-4.9v-16.2c0-2.7,2.2-4.9,4.9-4.9H143c2.7,0,4.9,2.2,4.9,4.9L147.8,148.4L147.8,148.4z M147.8,109.5
		c0,2.7-2.2,4.9-4.9,4.9h-16.2c-2.7,0-4.9-2.2-4.9-4.9V93.3c0-2.7,2.2-4.9,4.9-4.9H143c2.7,0,4.9,2.2,4.9,4.9L147.8,109.5
		L147.8,109.5z M162.6,53.8H29.4V36H46h0.4v1.3c0,3.6,2.9,6.5,6.5,6.5s6.5-2.9,6.5-6.5V36h73v1.3c0,3.6,2.9,6.5,6.5,6.5
		s6.5-2.9,6.5-6.5V36h0.4h16.6v17.8H162.6z"/>
</g>
</svg>
