<?xml version="1.0" encoding="utf-8"?>
<!-- Generator: Adobe Illustrator 25.4.1, SVG Export Plug-In . SVG Version: 6.00 Build 0)  -->
<svg version="1.1" id="レイヤー_1" xmlns="http://www.w3.org/2000/svg" xmlns:xlink="http://www.w3.org/1999/xlink" x="0px"
	 y="0px" viewBox="0 0 192 192" style="enable-background:new 0 0 192 192;" xml:space="preserve">
<style type="text/css">
	.st0{fill:none;}
</style>
<g id="レイヤー_1_00000111878517165424842760000009403310662388725653_">
</g>
<g id="_x31_">
	<rect class="st0" width="192" height="192"/>
	<path d="M96,3.3c-40.2,0-72.8,32.6-72.8,72.8c0,62.3,66.2,109.4,69,111.3c2.3,1.6,5.3,1.6,7.6,0c2.8-2,69-49,69-111.3
		C168.8,35.9,136.2,3.4,96,3.3z M96,49.7c14.6,0,26.5,11.9,26.5,26.5s-11.9,26.5-26.5,26.5S69.5,90.8,69.5,76.1
		C69.5,61.5,81.4,49.7,96,49.7L96,49.7z"/>
</g>
</svg>
