<svg enable-background="new 0 0 192 192" viewBox="0 0 192 192" xmlns="http://www.w3.org/2000/svg"><path d="m0 0h192v192h-192z" fill="none"/><path d="m167.3 17h-21.4-.4v-6.7c0-3.6-2.9-6.5-6.5-6.5s-6.5 2.9-6.5 6.5v6.7h-73v-6.7c0-3.6-2.9-6.5-6.5-6.5s-6.5 2.9-6.5 6.5v6.7h-.4-21.4c-7.9 0-14.3 6.4-14.3 14.3v142.6c0 7.9 6.4 14.3 14.3 14.3h142.6c7.9 0 14.3-6.4 14.3-14.3v-142.6c-.1-7.9-6.4-14.3-14.3-14.3zm-121.2 19h.4v1.3c0 3.6 2.9 6.5 6.5 6.5s6.5-2.9 6.5-6.5v-1.3h73v1.3c0 3.6 2.9 6.5 6.5 6.5s6.5-2.9 6.5-6.5v-1.3h.4 16.6v17.8h-133.1v-17.8zm-16.7 133.1v-96.3h133.1v96.3z"/><path d="m65.2 127.3h-16.2c-2.7 0-4.9 2.2-4.9 4.9v16.2c0 2.7 2.2 4.9 4.9 4.9h16.2c2.7 0 4.9-2.2 4.9-4.9v-16.2c0-2.7-2.2-4.9-4.9-4.9z"/><path d="m65.2 88.4h-16.2c-2.7 0-4.9 2.2-4.9 4.9v16.2c0 2.7 2.2 4.9 4.9 4.9h16.2c2.7 0 4.9-2.2 4.9-4.9v-16.2c0-2.7-2.2-4.9-4.9-4.9z"/><path d="m104.1 127.3h-16.2c-2.7 0-4.9 2.2-4.9 4.9v16.2c0 2.7 2.2 4.9 4.9 4.9h16.2c2.7 0 4.9-2.2 4.9-4.9v-16.2c0-2.7-2.2-4.9-4.9-4.9z"/><path d="m104.1 88.4h-16.2c-2.7 0-4.9 2.2-4.9 4.9v16.2c0 2.7 2.2 4.9 4.9 4.9h16.2c2.7 0 4.9-2.2 4.9-4.9v-16.2c0-2.7-2.2-4.9-4.9-4.9z"/><path d="m143 127.3h-16.2c-2.7 0-4.9 2.2-4.9 4.9v16.2c0 2.7 2.2 4.9 4.9 4.9h16.2c2.7 0 4.9-2.2 4.9-4.9v-16.2c-.1-2.7-2.2-4.9-4.9-4.9z"/><path d="m143 88.4h-16.2c-2.7 0-4.9 2.2-4.9 4.9v16.2c0 2.7 2.2 4.9 4.9 4.9h16.2c2.7 0 4.9-2.2 4.9-4.9v-16.2c-.1-2.7-2.2-4.9-4.9-4.9z"/></svg>