<svg enable-background="new 0 0 192 192" viewBox="0 0 192 192" xmlns="http://www.w3.org/2000/svg"><path d="m0 0h192v192h-192z" fill="none"/><path d="m167.3 17h-21.4-.4v-6.7c0-3.6-2.9-6.5-6.5-6.5s-6.5 2.9-6.5 6.5v6.7h-73v-6.7c0-3.6-2.9-6.5-6.5-6.5s-6.5 2.9-6.5 6.5v6.7h-.4-21.4c-7.9 0-14.3 6.4-14.3 14.3v142.6c0 7.9 6.4 14.3 14.3 14.3h142.6c7.9 0 14.3-6.4 14.3-14.3v-142.6c-.1-7.9-6.4-14.3-14.3-14.3zm-97.2 131.4c0 2.7-2.2 4.9-4.9 4.9h-16.2c-2.7 0-4.9-2.2-4.9-4.9v-16.2c0-2.7 2.2-4.9 4.9-4.9h16.2c2.7 0 4.9 2.2 4.9 4.9zm0-38.9c0 2.7-2.2 4.9-4.9 4.9h-16.2c-2.7 0-4.9-2.2-4.9-4.9v-16.2c0-2.7 2.2-4.9 4.9-4.9h16.2c2.7 0 4.9 2.2 4.9 4.9zm38.9 38.9c0 2.7-2.2 4.9-4.9 4.9h-16.2c-2.7 0-4.9-2.2-4.9-4.9v-16.2c0-2.7 2.2-4.9 4.9-4.9h16.2c2.7 0 4.9 2.2 4.9 4.9zm0-38.9c0 2.7-2.2 4.9-4.9 4.9h-16.2c-2.7 0-4.9-2.2-4.9-4.9v-16.2c0-2.7 2.2-4.9 4.9-4.9h16.2c2.7 0 4.9 2.2 4.9 4.9zm38.8 38.9c0 2.7-2.2 4.9-4.9 4.9h-16.2c-2.7 0-4.9-2.2-4.9-4.9v-16.2c0-2.7 2.2-4.9 4.9-4.9h16.3c2.7 0 4.9 2.2 4.9 4.9zm0-38.9c0 2.7-2.2 4.9-4.9 4.9h-16.2c-2.7 0-4.9-2.2-4.9-4.9v-16.2c0-2.7 2.2-4.9 4.9-4.9h16.3c2.7 0 4.9 2.2 4.9 4.9zm14.8-55.7h-133.2v-17.8h16.6.4v1.3c0 3.6 2.9 6.5 6.5 6.5s6.5-2.9 6.5-6.5v-1.3h73v1.3c0 3.6 2.9 6.5 6.5 6.5s6.5-2.9 6.5-6.5v-1.3h.4 16.6v17.8z"/></svg>