<?xml version="1.0" encoding="utf-8"?>
<!-- Generator: Adobe Illustrator 25.4.1, SVG Export Plug-In . SVG Version: 6.00 Build 0)  -->
<svg version="1.1" id="レイヤー_1" xmlns="http://www.w3.org/2000/svg" xmlns:xlink="http://www.w3.org/1999/xlink" x="0px"
	 y="0px" viewBox="0 0 192 192" style="enable-background:new 0 0 192 192;" xml:space="preserve">
<style type="text/css">
	.st0{fill:none;}
</style>
<g id="レイヤー_1_00000137845432278132642470000017683867214358386084_">
</g>
<g id="_x31_">
	<rect class="st0" width="192" height="192"/>
	<g>
		<path d="M96,3.3c-40.2,0-72.8,32.6-72.8,72.8c0,62.3,66.2,109.4,69,111.3c1.1,0.8,2.5,1.2,3.8,1.2s2.7-0.4,3.8-1.2
			c2.8-2,69-49,69-111.3C168.8,35.9,136.2,3.4,96,3.3z M96,166.4c-16.1-13.2-53.8-48.7-53.8-90.2c0-29.6,24.2-53.8,53.8-53.8
			s53.8,24.2,53.8,53.8C149.8,117.7,112.1,153.2,96,166.4z"/>
		<path d="M96,40.2L96,40.2c-19.8,0-36,16.1-36,36c0,19.8,16.1,36,36,36s36-16.1,36-36S115.8,40.2,96,40.2z M96,93.1
			c-9.4,0-17-7.6-17-17c0-4.5,1.8-8.8,5-12c3.2-3.2,7.5-5,12-5c9.4,0,17,7.6,17,17S105.4,93.1,96,93.1z"/>
	</g>
</g>
</svg>
