<svg enable-background="new 0 0 192 192" viewBox="0 0 192 192" xmlns="http://www.w3.org/2000/svg"><path d="m0 0h192v192h-192z" fill="none"/><path d="m96 3.3c-40.2 0-72.8 32.6-72.8 72.8 0 62.3 66.2 109.4 69 111.3 1.1.8 2.5 1.2 3.8 1.2s2.7-.4 3.8-1.2c2.8-2 69-49 69-111.3 0-40.2-32.6-72.7-72.8-72.8zm0 163.1c-16.1-13.2-53.8-48.7-53.8-90.2 0-29.6 24.2-53.8 53.8-53.8s53.8 24.2 53.8 53.8c0 41.5-37.7 77-53.8 90.2z"/><path d="m96 40.2c-19.8 0-36 16.1-36 36 0 19.8 16.1 36 36 36s36-16.1 36-36-16.2-36-36-36zm0 52.9c-9.4 0-17-7.6-17-17 0-4.5 1.8-8.8 5-12s7.5-5 12-5c9.4 0 17 7.6 17 17s-7.6 17-17 17z"/></svg>