<?xml version="1.0" encoding="utf-8"?>
<!-- Generator: Adobe Illustrator 25.4.1, SVG Export Plug-In . SVG Version: 6.00 Build 0)  -->
<svg version="1.1" id="レイヤー_1" xmlns="http://www.w3.org/2000/svg" xmlns:xlink="http://www.w3.org/1999/xlink" x="0px"
	 y="0px" viewBox="0 0 192 192" style="enable-background:new 0 0 192 192;" xml:space="preserve">
<style type="text/css">
	.st0{fill:none;}
</style>
<g id="レイヤー_1_00000107577887819702606650000012376852144241840542_">
</g>
<g id="_x31_">
	<rect class="st0" width="192" height="192"/>
	<g>
		<g>
			<path d="M100.4,52.2H87.2v52.5l45.9,27.6l6.6-10.8l-39.4-23.4L100.4,52.2L100.4,52.2z"/>
		</g>
		<path d="M95.9,27.5c37.8,0,68.6,30.7,68.6,68.5s-30.8,68.5-68.6,68.5c-37.7,0-68.4-30.7-68.4-68.5S58.2,27.5,95.9,27.5 M95.9,8.5
			C47.6,8.5,8.5,47.7,8.5,96s39.1,87.5,87.4,87.5c48.4,0,87.6-39.2,87.6-87.5S144.3,8.5,95.9,8.5L95.9,8.5z"/>
	</g>
</g>
</svg>
